<?xml version="1.0" encoding="utf-8"?>
<!-- Generator: Adobe Illustrator 16.0.0, SVG Export Plug-In . SVG Version: 6.00 Build 0)  -->
<!DOCTYPE svg PUBLIC "-//W3C//DTD SVG 1.1//EN" "http://www.w3.org/Graphics/SVG/1.1/DTD/svg11.dtd">
<svg version="1.1" id="Layer_1" xmlns="http://www.w3.org/2000/svg" xmlns:xlink="http://www.w3.org/1999/xlink" x="0px" y="0px"
	 width="419px" height="215px" viewBox="0 0 419 215" enable-background="new 0 0 419 215" xml:space="preserve">
<path fill="none" d="M78.397,211.852c1.407,3.84,2.815,7.678,4.217,11.521c0.634,1.738,0.413,2.563-1.835,2.775
	c-8.59,0.82-8.911,0.527-6.084-7.439c0.816-2.297,1.688-4.574,2.536-6.859C77.619,211.848,78.008,211.85,78.397,211.852z"/>
<g>
	<path fill="#fff" d="M102.189,200.986l-3.359-9.325H82.91l-3.568,9.325h-14.81l18.347-47.321h19.287l18.641,47.321H102.189z
		 M86.011,181.331h9.613l-4.808-13.728L86.011,181.331z"/>
	<path fill="#fff" d="M175.74,174.466v26.521h-8.926c-0.728-1.963-1.523-3.615-2.396-4.957c-3.687,3.791-9.143,5.688-16.37,5.688
		c-7.661,0-13.961-2.133-18.896-6.396c-4.936-4.266-7.401-10.036-7.401-17.315c0-7.071,2.389-13.021,7.162-17.837
		c4.774-4.818,11.878-7.229,21.313-7.229c7.082,0,12.785,1.435,17.108,4.299c4.325,2.867,7.125,6.935,8.403,12.203l-17.677,1.388
		c-0.871-4.923-3.585-7.384-8.144-7.384c-5.979,0-8.969,4.529-8.969,13.59c0,5.477,0.958,9.089,2.874,10.833
		c1.916,1.745,4.237,2.618,6.966,2.618c2.206,0,4.085-0.532,5.64-1.596c1.553-1.063,2.344-2.521,2.372-4.367h-9.841v-10.057
		L175.74,174.466L175.74,174.466z"/>
	<path fill="#fff" d="M230.075,189.686v11.303h-44.714v-47.321h44.714v10.921h-26.819v6.864h21.684v10.504h-21.684v7.729H230.075
		L230.075,189.686z"/>
	<path fill="#fff" d="M274.44,183.271h-19.375v17.715H237.3v-47.321h42.975v11.269h-25.209v7.695h19.375V183.271z"/>
	<path fill="#fff" d="M304.308,153.665v47.321h-18.243v-47.321H304.308L304.308,153.665z"/>
	<path fill="#fff" d="M308.53,187.294l16.938-2.428c1.422,3.813,5.079,5.721,10.972,5.721c4.586,0,6.879-0.971,6.879-2.912
		c0-1.017-0.53-1.809-1.589-2.375c-1.061-0.565-2.954-1.067-5.683-1.506c-10.423-1.591-17.112-3.669-20.072-6.235
		c-2.959-2.563-4.439-5.582-4.439-9.051c0-4.461,2.126-8.172,6.379-11.131c4.254-2.96,10.369-4.439,18.354-4.439
		c12.104,0,20.1,3.871,23.989,11.615l-15.108,3.639c-1.565-3.166-4.745-4.748-9.534-4.748c-3.978,0-5.965,0.981-5.965,2.945
		c0,0.879,0.449,1.562,1.351,2.047c0.898,0.483,2.643,0.945,5.227,1.383c7.112,1.199,12.163,2.26,15.153,3.181
		c2.989,0.921,5.484,2.497,7.485,4.729c2.002,2.23,3.002,4.861,3.002,7.893c0,4.788-2.438,8.668-7.313,11.641
		c-4.876,2.971-11.276,4.457-19.2,4.457C320.866,201.716,311.927,196.908,308.53,187.294z"/>
</g>
<circle fill="#fff" cx="298.737" cy="91.487" r="50.5"/>
<path fill="#fff" d="M11.237,157.986c0,0,305-189,385-135c0,0,38,25-24,133c0,0,58-123-55-100S41.237,144.986,11.237,157.986z"/>
</svg>
